<svg xmlns="http://www.w3.org/2000/svg" width="128" height="128" viewBox="0 0 256 256" id="svgId--1"><g stroke-linecap="round" fill-rule="evenodd" stroke="#808080" transform="translate(76 56)"><path d="M 73.248 52.225 L 73.248 16.897 A 26.498 26.498 0 0 1 73.662 12.058 Q 74.169 9.329 75.299 7.185 A 13.215 13.215 0 0 1 77.28 4.369 A 12.96 12.96 0 0 1 83.549 0.667 Q 85.648 0.094 88.159 0.014 A 25.974 25.974 0 0 1 88.992 0.001 Q 96.672 0.001 100.704 4.369 A 14.144 14.144 0 0 1 103.79 9.881 Q 104.44 11.987 104.644 14.513 A 29.735 29.735 0 0 1 104.736 16.897 L 104.736 22.657 L 94.752 22.657 L 94.752 16.225 A 11.713 11.713 0 0 0 94.517 13.766 Q 93.619 9.601 89.28 9.601 A 6.401 6.401 0 0 0 86.918 10.002 Q 84.131 11.103 83.842 15.229 A 14.251 14.251 0 0 0 83.808 16.225 L 83.808 52.993 A 11.381 11.381 0 0 0 84.043 55.416 Q 84.941 59.521 89.28 59.521 Q 94.363 59.521 94.724 53.887 A 13.993 13.993 0 0 0 94.752 52.993 L 94.752 39.841 L 89.472 39.841 L 89.472 30.241 L 104.736 30.241 L 104.736 52.225 A 26.498 26.498 0 0 1 104.322 57.063 Q 103.815 59.792 102.685 61.936 A 13.215 13.215 0 0 1 100.704 64.753 A 12.96 12.96 0 0 1 94.435 68.454 Q 92.336 69.027 89.825 69.107 A 25.974 25.974 0 0 1 88.992 69.121 A 21.533 21.533 0 0 1 84.345 68.65 Q 81.354 67.989 79.14 66.399 A 12.258 12.258 0 0 1 77.28 64.753 A 14.144 14.144 0 0 1 74.194 59.24 Q 73.544 57.134 73.34 54.608 A 29.735 29.735 0 0 1 73.248 52.225 Z M 44.928 68.161 L 34.752 0.961 L 45.408 0.961 L 52.32 53.089 L 52.512 53.089 L 59.424 0.961 L 69.12 0.961 L 58.944 68.161 L 44.928 68.161 Z M 0 52.225 L 0 48.385 L 9.984 48.385 L 9.984 52.993 A 11.381 11.381 0 0 0 10.219 55.416 Q 11.117 59.521 15.456 59.521 Q 18.144 59.521 19.536 57.937 A 4.68 4.68 0 0 0 20.384 56.472 Q 20.891 55.12 20.925 53.101 A 17.492 17.492 0 0 0 20.928 52.801 Q 20.928 48.577 19.008 45.361 A 18.318 18.318 0 0 0 17.512 43.252 Q 15.786 41.12 12.924 38.537 A 75.248 75.248 0 0 0 11.904 37.633 A 69.573 69.573 0 0 1 8.208 34.14 Q 4.687 30.541 2.904 27.43 A 19.937 19.937 0 0 1 2.784 27.217 A 20.664 20.664 0 0 1 0.269 18.682 A 25.151 25.151 0 0 1 0.192 16.705 A 25.324 25.324 0 0 1 0.626 11.863 Q 1.178 9.031 2.432 6.826 A 13.308 13.308 0 0 1 4.224 4.369 A 12.96 12.96 0 0 1 10.493 0.667 Q 12.592 0.094 15.103 0.014 A 25.974 25.974 0 0 1 15.936 0.001 A 20.981 20.981 0 0 1 20.415 0.449 Q 23.27 1.073 25.389 2.566 A 11.767 11.767 0 0 1 27.408 4.369 Q 30.676 8.04 31.197 14.391 A 30.658 30.658 0 0 1 31.296 16.897 L 31.296 19.681 L 21.312 19.681 L 21.312 16.225 A 14.08 14.08 0 0 0 21.206 14.429 Q 20.954 12.475 20.104 11.354 A 3.947 3.947 0 0 0 19.968 11.185 A 4.326 4.326 0 0 0 17.603 9.772 A 6.755 6.755 0 0 0 16.032 9.601 A 6.127 6.127 0 0 0 13.738 9.996 Q 10.752 11.196 10.752 16.033 Q 10.752 19.681 12.72 22.849 A 19.236 19.236 0 0 0 14.218 24.904 Q 16.268 27.391 19.872 30.529 Q 26.496 36.289 28.992 40.993 Q 31.488 45.697 31.488 52.033 A 26.8 26.8 0 0 1 31.069 56.928 Q 30.556 59.688 29.412 61.856 A 13.355 13.355 0 0 1 27.408 64.705 Q 23.553 68.877 16.397 69.107 A 26.334 26.334 0 0 1 15.552 69.121 Q 7.872 69.121 3.936 64.753 Q 0.615 61.067 0.096 54.682 A 30.353 30.353 0 0 1 0 52.225 Z" vector-effect="non-scaling-stroke" stroke-width="1" stroke="#808080" fill="#defc9d" fill-opacity="100%"></path></g>
<g stroke-linecap="round" fill-rule="evenodd" stroke="#808080" transform="translate(76 156)"><path d="M 19.84 8.793 L 19.84 9.177 Q 19.712 10.329 19.712 11.545 Q 19.712 13.849 19.456 15.705 A 195.189 195.189 0 0 0 19.347 16.51 Q 19.185 17.718 19.136 18.233 Q 19.072 18.905 18.944 19.545 L 18.944 19.993 Q 18.944 21.145 18.432 22.297 L 18.24 25.177 L 17.984 31.257 L 17.984 34.457 A 36.021 36.021 0 0 1 17.977 35.226 Q 17.947 36.62 17.798 36.975 A 0.252 0.252 0 0 1 17.728 37.081 L 17.792 38.745 L 17.792 39.449 L 17.728 40.217 Q 17.728 40.473 17.6 40.473 Q 17.705 41.101 17.231 41.793 A 3.715 3.715 0 0 1 16.992 42.105 Q 16.256 42.969 15.168 43.225 L 14.016 43.417 Q 13.76 43.417 13.312 43.449 Q 12.864 43.481 12.544 43.353 A 4.377 4.377 0 0 1 12.024 43.102 A 4.951 4.951 0 0 1 11.904 43.033 A 1.577 1.577 0 0 1 11.403 42.54 Q 11.256 42.318 11.147 42.025 A 3.878 3.878 0 0 1 11.008 41.561 Q 10.816 41.241 10.24 37.657 A 11.925 11.925 0 0 0 10.224 37.055 Q 10.194 36.475 10.112 35.737 L 10.304 34.201 L 10.304 32.985 Q 10.304 32.104 10.454 31.635 A 1.302 1.302 0 0 1 10.56 31.385 A 0.445 0.445 0 0 1 10.498 31.233 Q 10.4 30.788 10.88 29.721 A 0.861 0.861 0 0 1 10.741 29.439 Q 10.533 28.754 10.944 27.161 Q 10.722 26.438 10.886 26.15 A 0.361 0.361 0 0 1 10.944 26.073 Q 11.049 25.759 11.068 24.765 A 25.13 25.13 0 0 0 11.072 24.281 L 11.136 23.641 A 15.58 15.58 0 0 1 11.254 21.68 A 12.267 12.267 0 0 1 11.52 20.249 Q 11.392 20.057 11.52 19.225 Q 11.618 18.588 11.679 17.763 A 29.563 29.563 0 0 0 11.712 17.241 L 11.712 16.793 Q 11.776 15.833 11.776 14.745 L 11.84 14.169 Q 11.84 13.785 12 12.633 Q 12.16 11.481 12.288 10.201 L 12.16 10.201 A 193.512 193.512 0 0 1 9.801 10.831 Q 5.088 12.057 3.84 12.057 L 2.752 12.121 A 6.329 6.329 0 0 1 1.339 11.955 A 7.573 7.573 0 0 1 0.768 11.801 A 0.956 0.956 0 0 1 0.446 11.526 Q 0.23 11.25 0.08 10.757 A 4.89 4.89 0 0 1 0 10.457 A 7.616 7.616 0 0 1 0.074 9.36 Q 0.261 8.075 0.928 7.385 A 4.017 4.017 0 0 1 1.623 6.826 Q 2.374 6.336 3.585 5.882 A 19.957 19.957 0 0 1 4.416 5.593 Q 5.02 5.532 11.552 3.192 A 710.625 710.625 0 0 0 12.352 2.905 L 15.104 2.265 A 3.655 3.655 0 0 1 15.607 2.141 Q 16.154 2.042 16.959 2.017 A 18.592 18.592 0 0 1 17.536 2.009 Q 18.81 2.009 19.765 1.765 A 5.503 5.503 0 0 0 20.32 1.593 Q 21.44 1.177 22.784 0.953 Q 24.128 0.729 25.6 0.473 Q 26.263 0.231 27.949 0.558 A 17.232 17.232 0 0 1 28.16 0.601 Q 28.864 0.601 30.4 2.073 L 30.784 2.969 A 1.224 1.224 0 0 0 30.802 3.185 Q 30.823 3.303 30.87 3.396 A 0.569 0.569 0 0 0 30.976 3.545 Q 31.232 5.273 30.208 5.785 Q 29.826 5.976 28.872 6.294 A 29.547 29.547 0 0 1 28.864 6.297 A 5.661 5.661 0 0 0 28.186 6.349 Q 26.544 6.557 22.464 7.577 A 1.672 1.672 0 0 0 22.306 7.589 Q 21.794 7.646 19.904 7.961 L 19.84 8.793 Z M 51.2 21.209 L 51.264 20.633 Q 50.026 20.515 49.467 20.424 A 6.697 6.697 0 0 1 49.376 20.409 Q 48.852 20.316 47.706 20.194 A 74.913 74.913 0 0 0 47.616 20.185 Q 46.4 20.057 45.696 19.801 A 2.044 2.044 0 0 1 44.415 18.56 Q 44.261 18.183 44.19 17.703 A 5.212 5.212 0 0 1 44.16 17.465 Q 43.976 15.653 45.265 15.167 A 2.25 2.25 0 0 1 45.376 15.129 A 22.123 22.123 0 0 1 45.951 14.992 Q 46.78 14.809 47.168 14.809 A 7.123 7.123 0 0 0 47.457 14.802 Q 47.881 14.784 48.612 14.722 A 72.169 72.169 0 0 0 49.088 14.681 Q 49.596 14.403 50.371 14.293 A 7.205 7.205 0 0 1 51.008 14.233 L 51.968 13.977 Q 51.968 14.033 52.372 13.888 A 8.332 8.332 0 0 0 52.48 13.849 L 52.8 12.505 A 3.896 3.896 0 0 1 53.091 11.049 A 4.98 4.98 0 0 1 53.376 10.457 A 1.235 1.235 0 0 1 53.41 10.209 Q 53.545 9.593 54.208 7.961 Q 54.208 7.737 55.088 5.07 A 272.971 272.971 0 0 1 55.36 4.249 A 1.422 1.422 0 0 1 55.506 4.099 Q 55.928 3.713 57.28 2.777 A 1.463 1.463 0 0 1 57.856 2.628 Q 58.777 2.574 60.16 3.481 A 3.684 3.684 0 0 1 60.801 3.835 Q 61.319 4.199 61.568 4.697 Q 61.184 5.081 61.184 6.489 Q 61.124 6.911 60.379 10.754 A 1570.281 1570.281 0 0 1 60.288 11.225 L 60.288 13.017 Q 60.8 13.081 61.984 13.337 Q 62.798 13.513 63.839 13.719 A 180.086 180.086 0 0 0 64.832 13.913 A 9.666 9.666 0 0 1 66.325 14.328 Q 68.247 15.048 68.864 16.473 Q 69.184 17.881 68.736 18.457 A 1.268 1.268 0 0 1 68.383 18.755 Q 67.802 19.105 66.56 19.289 Q 65.301 19.346 63.35 19.352 A 151.767 151.767 0 0 1 62.88 19.353 Q 61.043 19.353 59.981 19.562 A 5.185 5.185 0 0 0 59.52 19.673 Q 59.415 20.622 59.396 21.224 A 7.842 7.842 0 0 0 59.392 21.465 L 59.328 22.425 Q 59.328 22.847 58.815 26.69 A 581.257 581.257 0 0 1 58.752 27.161 Q 58.425 27.651 58.191 31.619 A 132.292 132.292 0 0 0 58.112 33.113 L 58.112 37.785 A 12.373 12.373 0 0 0 58.203 39.308 A 10.665 10.665 0 0 0 58.304 39.961 Q 58.368 41.369 58.624 41.945 A 3.96 3.96 0 0 0 58.639 42.258 Q 58.681 42.77 58.838 43.74 A 59.386 59.386 0 0 0 58.944 44.377 A 3.794 3.794 0 0 1 58.434 45.274 A 2.433 2.433 0 0 1 56.416 46.233 A 4.355 4.355 0 0 1 53.359 44.997 A 5.63 5.63 0 0 1 53.312 44.953 L 52.608 43.929 A 21.028 21.028 0 0 0 52.519 43.696 Q 52.411 43.417 52.342 43.271 A 2.052 2.052 0 0 0 52.32 43.225 Q 52.225 43.034 52.161 42.781 A 2.914 2.914 0 0 1 52.16 42.777 A 21.165 21.165 0 0 0 51.973 42.263 Q 51.656 41.427 51.456 41.177 Q 51.091 40.689 51.073 40.434 A 0.367 0.367 0 0 1 51.072 40.409 L 51.072 39.769 Q 50.974 38.936 50.839 38.29 A 10.201 10.201 0 0 0 50.752 37.913 Q 50.436 37.597 50.432 35.784 A 21.153 21.153 0 0 1 50.432 35.737 Q 50.547 32.701 50.456 31.972 A 1.207 1.207 0 0 0 50.432 31.833 Q 50.606 31.659 50.517 29.803 A 43.514 43.514 0 0 0 50.496 29.401 L 50.688 27.993 Q 50.688 27.775 50.874 26.537 A 119.612 119.612 0 0 1 50.944 26.073 A 0.536 0.536 0 0 1 50.905 25.955 Q 50.827 25.618 50.88 24.697 Q 50.944 23.577 51.072 23.129 Q 51.2 22.361 51.2 21.209 Z M 97.216 32.537 L 94.848 32.729 Q 92.864 32.729 91.712 32.345 L 91.904 33.561 Q 92.08 38.439 94.416 40.241 A 4.625 4.625 0 0 0 94.848 40.537 Q 95.599 40.849 96.105 40.856 A 1.666 1.666 0 0 0 96.128 40.857 Q 96.562 40.857 97.225 40.489 A 6.249 6.249 0 0 0 97.472 40.345 A 1.729 1.729 0 0 0 97.684 40.084 Q 97.812 39.893 97.92 39.641 A 0.849 0.849 0 0 1 97.97 39.426 Q 98.106 39.078 98.56 39.129 A 18.862 18.862 0 0 1 99.404 38.126 Q 100.989 36.382 102.02 36.382 A 1.079 1.079 0 0 1 102.528 36.505 A 9.62 9.62 0 0 1 102.985 36.827 Q 103.681 37.352 103.831 37.722 A 0.509 0.509 0 0 1 103.872 37.913 A 0.507 0.507 0 0 1 103.829 38.109 Q 103.755 38.286 103.552 38.489 L 103.552 38.873 A 1.746 1.746 0 0 1 103.508 39.229 Q 103.388 39.792 102.941 40.773 A 21.516 21.516 0 0 1 102.752 41.177 Q 102.015 42.709 101.197 43.807 A 11.23 11.23 0 0 1 101.056 43.993 A 3.841 3.841 0 0 1 100.701 44.608 Q 100.463 44.94 100.176 45.16 A 2.109 2.109 0 0 1 99.904 45.337 A 6.936 6.936 0 0 1 97.602 46.274 Q 96.604 46.477 95.552 46.361 Q 95.134 46.308 94.93 46.171 A 0.542 0.542 0 0 1 94.848 46.105 Q 94.336 45.977 94.08 46.041 L 93.568 45.977 Q 93.019 45.977 92.645 45.744 A 1.338 1.338 0 0 1 92.608 45.721 Q 91.968 45.337 91.712 45.337 Q 90.048 44.697 89.696 44.377 Q 89.356 44.068 89.106 43.938 A 1.31 1.31 0 0 0 89.088 43.929 A 0.646 0.646 0 0 1 88.967 43.842 Q 88.675 43.593 87.985 42.727 A 36.562 36.562 0 0 1 87.872 42.585 Q 87.04 41.881 86.912 41.689 Q 86.567 41.17 86.299 40.911 A 1.889 1.889 0 0 0 86.24 40.857 A 0.671 0.671 0 0 1 86.092 40.655 Q 85.934 40.342 85.888 39.705 A 1.129 1.129 0 0 1 85.672 39.247 Q 85.635 39.085 85.632 38.898 A 2.021 2.021 0 0 1 85.632 38.873 L 85.376 38.361 A 0.833 0.833 0 0 0 85.297 37.994 Q 85.202 37.797 84.992 37.657 A 1.295 1.295 0 0 1 84.609 36.734 A 1.701 1.701 0 0 1 84.608 36.697 L 84.608 36.185 A 0.272 0.272 0 0 1 84.479 36.039 Q 84.409 35.873 84.457 35.55 A 2.66 2.66 0 0 1 84.48 35.417 L 84.48 33.753 L 84.416 33.177 L 84.416 32.729 A 0.495 0.495 0 0 1 84.405 32.661 Q 84.375 32.379 84.539 31.661 A 12.116 12.116 0 0 1 84.544 31.641 L 84.48 31.065 Q 84.544 31.001 84.672 30.041 A 11.465 11.465 0 0 1 84.787 29.502 Q 84.97 28.745 85.181 28.456 A 0.676 0.676 0 0 1 85.248 28.377 L 85.248 27.801 A 1.046 1.046 0 0 0 85.285 27.653 Q 85.312 27.499 85.312 27.289 A 1.508 1.508 0 0 1 85.35 26.964 Q 85.39 26.783 85.472 26.585 Q 85.609 26.257 86.236 24.388 A 376.728 376.728 0 0 0 86.464 23.705 L 87.488 21.465 Q 87.936 20.505 88.896 19.353 Q 88.953 19.066 89.319 18.368 A 16.833 16.833 0 0 1 89.408 18.201 L 90.24 17.433 Q 90.624 16.857 91.392 16.601 Q 92.081 16.256 92.505 16.177 A 1.263 1.263 0 0 1 92.736 16.153 L 94.528 15.897 A 6.716 6.716 0 0 0 94.672 15.924 Q 94.879 15.961 94.976 15.961 L 95.808 15.961 Q 97.216 16.089 98.112 16.537 Q 100.032 17.113 100.928 18.009 A 10.552 10.552 0 0 1 101.953 19.356 Q 102.912 20.873 102.912 22.297 Q 102.912 24.16 102.383 25.546 A 6.462 6.462 0 0 1 102.272 25.817 Q 100.91 28.922 100.197 30.079 A 5.207 5.207 0 0 1 99.968 30.425 Q 99.343 31.57 98.587 32.094 A 2.362 2.362 0 0 1 97.216 32.537 Z M 71.232 9.561 L 71.68 5.785 L 71.744 3.801 Q 71.744 3.255 71.882 2.874 A 1.458 1.458 0 0 1 72.064 2.521 L 72.704 1.625 A 47.084 47.084 0 0 1 73.309 1.161 Q 74.214 0.481 74.676 0.22 A 1.998 1.998 0 0 1 74.944 0.089 Q 75.386 -0.077 76.186 0.067 A 6.147 6.147 0 0 1 76.448 0.121 Q 77.254 0.303 77.532 0.464 A 0.488 0.488 0 0 1 77.632 0.537 L 78.336 1.113 Q 78.912 1.433 78.912 2.137 A 1.803 1.803 0 0 1 79.007 2.26 Q 79.141 2.452 79.141 2.587 A 0.221 0.221 0 0 1 79.104 2.713 Q 78.72 3.161 77.824 10.265 L 77.312 18.969 L 76.992 20.697 Q 76.992 21.529 77.056 21.657 L 77.056 22.809 Q 76.952 23.849 76.848 24.255 A 1.278 1.278 0 0 1 76.8 24.409 Q 76.8 24.729 76.672 25.113 A 0.238 0.238 0 0 1 76.721 25.202 Q 76.797 25.419 76.8 26.059 A 11.281 11.281 0 0 1 76.8 26.105 A 6.07 6.07 0 0 1 76.792 26.428 Q 76.767 26.894 76.663 27.085 A 0.332 0.332 0 0 1 76.608 27.161 Q 76.48 28.185 76.48 29.113 Q 76.48 30.041 76.64 31.033 A 8.786 8.786 0 0 1 76.754 32.433 A 8.284 8.284 0 0 1 76.736 32.985 L 76.992 35.417 L 76.992 36.377 Q 77.114 37.476 77.12 38.167 A 8.086 8.086 0 0 1 77.12 38.233 L 77.44 41.561 L 77.696 43.289 A 4.367 4.367 0 0 1 77.764 44.049 A 4.132 4.132 0 0 1 77.536 45.401 Q 77.184 46.425 76.48 46.681 A 3.164 3.164 0 0 1 75.245 46.932 Q 73.78 46.932 72.128 45.593 L 71.616 45.593 Q 71.168 45.081 70.912 44.185 Q 70.414 43.936 70.461 43.324 A 1.504 1.504 0 0 1 70.464 43.289 A 2.108 2.108 0 0 0 70.475 43.079 A 1.742 1.742 0 0 0 70.208 42.137 A 2.88 2.88 0 0 1 70.04 41.831 Q 69.888 41.505 69.888 41.241 A 9.274 9.274 0 0 0 69.864 40.549 Q 69.837 40.194 69.782 39.883 A 5.396 5.396 0 0 0 69.76 39.769 L 69.824 39.257 Q 69.665 39.098 69.638 38.807 A 1.351 1.351 0 0 1 69.632 38.681 L 69.504 37.529 L 69.504 37.017 Q 69.504 36.533 69.476 36.335 A 1.023 1.023 0 0 0 69.472 36.313 A 0.342 0.342 0 0 1 69.468 36.27 Q 69.462 36.118 69.564 35.841 A 3.682 3.682 0 0 1 69.632 35.673 A 0.38 0.38 0 0 1 69.578 35.552 Q 69.474 35.199 69.547 34.105 A 21.526 21.526 0 0 1 69.568 33.817 A 269.268 269.268 0 0 0 69.727 31.675 Q 69.952 28.454 69.952 27.033 L 70.016 25.497 L 70.016 23.641 Q 70.077 22.181 70.109 19.97 A 253.071 253.071 0 0 0 70.112 19.737 Q 70.144 17.369 70.336 17.177 L 70.272 16.601 Q 70.272 15.213 70.664 12.912 A 50.004 50.004 0 0 1 70.752 12.409 Q 71.194 9.961 71.229 9.606 A 0.511 0.511 0 0 0 71.232 9.561 Z M 34.88 18.777 L 35.264 18.777 Q 35.904 18.457 38.272 19.417 Q 38.444 19.589 38.732 19.761 A 4.674 4.674 0 0 0 39.04 19.929 L 40.064 20.761 A 0.758 0.758 0 0 1 40.233 21.031 Q 40.279 21.151 40.301 21.302 A 2.059 2.059 0 0 1 40.32 21.593 L 40.32 27.225 Q 40.32 28.505 40.192 29.529 L 40.192 29.913 A 16.698 16.698 0 0 0 40.16 30.518 Q 40.052 33.479 40.512 41.753 Q 40.704 43.545 39.68 43.929 A 5.817 5.817 0 0 1 39.241 43.913 Q 38.549 43.861 38.291 43.627 A 0.549 0.549 0 0 1 38.272 43.609 A 1.555 1.555 0 0 0 38.107 43.537 Q 37.952 43.481 37.824 43.481 L 37.376 43.481 L 36.992 43.609 A 0.449 0.449 0 0 1 36.885 43.593 Q 36.68 43.541 36.288 43.321 Q 35.799 43.045 35.631 42.741 A 0.797 0.797 0 0 1 35.616 42.713 A 0.677 0.677 0 0 0 35.176 42.352 A 0.954 0.954 0 0 0 35.072 42.329 A 1.356 1.356 0 0 1 34.695 42.125 Q 34.348 41.853 34.304 41.369 Q 33.408 39.641 33.376 39.321 A 1.621 1.621 0 0 0 33.314 39.017 Q 33.271 38.874 33.202 38.72 A 3.027 3.027 0 0 0 33.152 38.617 L 32.832 33.049 A 11.604 11.604 0 0 1 32.843 32.518 Q 32.866 32.021 32.935 31.685 A 2.684 2.684 0 0 1 32.96 31.577 L 32.96 30.041 Q 33.013 29.463 33.065 28.088 A 149.455 149.455 0 0 0 33.088 27.449 Q 33.145 25.76 33.254 24.66 A 20.436 20.436 0 0 1 33.28 24.409 Q 33.17 22.973 33.155 22.347 A 7.452 7.452 0 0 1 33.152 22.169 Q 33.152 21.726 33.19 21.472 A 1.436 1.436 0 0 1 33.216 21.337 A 1.082 1.082 0 0 1 32.879 20.546 Q 32.879 20.195 33.08 19.775 A 3.503 3.503 0 0 1 33.28 19.417 A 3.809 3.809 0 0 1 33.838 19.056 Q 34.373 18.777 34.88 18.777 Z M 35.584 3.673 L 35.776 3.673 Q 39.467 3.673 41.262 4.953 A 4.192 4.192 0 0 1 41.792 5.401 A 3.001 3.001 0 0 1 41.722 5.984 Q 41.47 7.217 40.32 9.817 A 5.006 5.006 0 0 1 40.071 10.598 Q 39.892 11.029 39.641 11.359 A 2.847 2.847 0 0 1 39.488 11.545 L 38.656 12.377 A 1.425 1.425 0 0 1 38.356 12.514 A 1.114 1.114 0 0 1 38.016 12.569 Q 36.566 12.931 35.522 12.482 A 3.013 3.013 0 0 1 34.432 11.673 Q 34.176 11.289 33.824 11.097 A 0.602 0.602 0 0 1 33.632 10.918 Q 33.425 10.636 33.292 10.001 A 6.028 6.028 0 0 1 33.28 9.945 A 6.317 6.317 0 0 1 33.035 9.564 Q 32.704 9.004 32.704 8.665 A 9.896 9.896 0 0 1 32.699 8.346 Q 32.699 5.944 33.92 4.689 A 4.136 4.136 0 0 1 35.584 3.673 Z M 92.864 25.689 L 92.8 25.689 Q 92.152 28.164 92.1 28.523 A 0.357 0.357 0 0 0 92.096 28.569 Q 93.006 28.796 93.613 28.796 A 2.945 2.945 0 0 0 93.76 28.793 Q 94.4 28.761 95.232 28.121 Q 96.625 26.788 97.331 23.678 A 19.932 19.932 0 0 0 97.408 23.321 A 3.323 3.323 0 0 0 97.503 22.778 Q 97.572 22.058 97.391 21.115 A 9.52 9.52 0 0 0 97.344 20.889 Q 96.933 20.536 96.252 20.507 A 2.919 2.919 0 0 0 96.128 20.505 Q 95.168 20.505 94.4 22.297 Q 93.376 23.833 92.864 25.689 Z" vector-effect="non-scaling-stroke" stroke-width="1" stroke="#808080" fill="#defc9d" fill-opacity="100%"></path></g>
<g stroke-linecap="round" fill-rule="evenodd" stroke="#808080" transform="translate(25 84)"><path d="M 5.249 0.001 L 23.425 0.001 Q 23.681 0.769 23.937 1.665 A 6.061 6.061 0 0 1 24.107 2.489 Q 24.166 2.91 24.184 3.391 A 11.792 11.792 0 0 1 24.193 3.841 Q 24.193 7.209 21.425 7.892 A 6.635 6.635 0 0 1 19.841 8.065 L 9.345 8.065 L 9.345 89.217 L 23.425 89.217 L 23.937 91.009 A 6.061 6.061 0 0 1 24.107 91.833 Q 24.166 92.254 24.184 92.735 A 11.792 11.792 0 0 1 24.193 93.185 Q 24.193 96.553 21.425 97.236 A 6.635 6.635 0 0 1 19.841 97.409 L 5.249 97.409 A 7.433 7.433 0 0 1 3.717 97.261 Q 2.253 96.952 1.345 96.001 A 4.693 4.693 0 0 1 0.182 93.809 Q 0.001 93.054 0.001 92.161 L 0.001 5.121 Q 0.001 1.038 3.337 0.211 A 7.96 7.96 0 0 1 5.249 0.001 Z M 199.297 97.409 L 181.121 97.409 Q 180.865 96.641 180.609 95.681 A 7.531 7.531 0 0 1 180.389 94.406 A 9.455 9.455 0 0 1 180.353 93.569 Q 180.353 89.217 184.833 89.217 L 195.201 89.217 L 195.201 8.065 L 181.121 8.065 Q 180.865 7.297 180.609 6.337 A 7.531 7.531 0 0 1 180.389 5.062 A 9.455 9.455 0 0 1 180.353 4.225 A 5.723 5.723 0 0 1 180.583 2.528 Q 181.162 0.662 183.203 0.174 A 7.023 7.023 0 0 1 184.833 0.001 L 199.297 0.001 Q 203.44 0.001 204.312 3.191 A 7.326 7.326 0 0 1 204.545 5.121 L 204.545 92.161 A 7.102 7.102 0 0 1 204.375 93.76 Q 204.096 94.968 203.358 95.827 A 4.479 4.479 0 0 1 203.201 96.001 Q 201.857 97.409 199.297 97.409 Z" vector-effect="non-scaling-stroke" stroke-width="1" stroke="#808080" fill="#808080" fill-opacity="100%"></path></g>
</svg>
